# xmcd
#
# Track frame offsets: 
#        150
#        20637
#        37934
#        58593
#        77136
#        102066
#        124089
#        143659
#        162241
#        184569
#        200612
#
# Disc length: 2854 seconds
#
# Revision: 0
# Processed by: cddbd v1.5.2PL0 Copyright (c) Steve Scherf et al.
# Submitted via: ExactAudioCopy v1.0b4
#
DISCID=8a0b240b
DTITLE=The Jimmy Bowskill Band - Back Number
DYEAR=2012
DGENRE=Blues Rock
TTITLE0=Take A Ride
TTITLE1=Linger On The Sweet Time
TTITLE2=Salty Dog
TTITLE3=Little Bird
TTITLE4=Spirit Of The Town
TTITLE5=Sin's A Good Man's Brother
TTITLE6=Sinking Down
TTITLE7=Down The Road
TTITLE8=Seasons Change
TTITLE9=Broke Down Engine
TTITLE10=Least Of My Worries
EXTD=
EXTT0=
EXTT1=
EXTT2=
EXTT3=
EXTT4=
EXTT5=
EXTT6=
EXTT7=
EXTT8=
EXTT9=
EXTT10=
PLAYORDER=
